<?xml version="1.0" encoding="UTF-8" standalone="no"?>
<!DOCTYPE svg PUBLIC "-//W3C//DTD SVG 1.1//EN" "http://www.w3.org/Graphics/SVG/1.1/DTD/svg11.dtd">
<svg width="100%" height="100%" viewBox="0 0 800 800" version="1.1" xmlns="http://www.w3.org/2000/svg" xmlns:xlink="http://www.w3.org/1999/xlink" xml:space="preserve" xmlns:serif="http://www.serif.com/" style="fill-rule:evenodd;clip-rule:evenodd;stroke-linejoin:round;stroke-miterlimit:2;">
    <g transform="matrix(1,0,0,1,-3.2474e-14,100)">
        <g id="logo">
            <g transform="matrix(1.55237,0,0,1.55727,-298.32,-136.525)">
                <path d="M474.761,24.659C458.187,23.053 441.495,23.053 424.92,24.659L416.712,64.496C400.825,66.919 385.255,71.078 370.282,76.898L343.191,46.489C328.032,53.36 313.577,61.68 300.028,71.331L312.9,109.923C300.358,119.939 288.96,131.302 278.911,143.805L240.198,130.973C230.516,144.479 222.17,158.889 215.278,174.001L245.782,201.006C239.944,215.932 235.772,231.453 233.341,247.29L193.378,255.473C191.768,271.995 191.768,288.634 193.378,305.157L233.341,313.34C235.772,329.176 239.944,344.697 245.782,359.624L215.278,386.629C222.17,401.74 230.516,416.15 240.198,429.656L278.911,416.824C288.96,429.327 300.358,440.69 312.9,450.707L300.028,489.298C313.577,498.95 328.032,507.269 343.191,514.14L370.282,483.732C385.255,489.551 400.825,493.71 416.712,496.133L424.92,535.97C441.495,537.576 458.187,537.576 474.761,535.97L482.97,496.133C498.856,493.71 514.427,489.551 529.4,483.732L556.49,514.14C571.649,507.269 586.105,498.95 599.654,489.298L586.781,450.707C599.324,440.69 610.722,429.327 620.77,416.824L659.483,429.656C669.165,416.15 677.511,401.74 684.404,386.629L653.899,359.624C659.737,344.697 663.909,329.176 666.34,313.34L706.303,305.157C707.914,288.634 707.914,271.995 706.303,255.473L666.34,247.29C663.909,231.453 659.737,215.932 653.899,201.006L684.404,174.001C677.511,158.889 669.165,144.479 659.483,130.973L620.77,143.805C610.722,131.302 599.324,119.939 586.781,109.923L599.654,71.331C586.105,61.68 571.649,53.36 556.49,46.489L529.4,76.898C514.427,71.078 498.856,66.919 482.97,64.496L474.761,24.659ZM449.841,83.634C558.734,83.634 647.142,171.764 647.142,280.315C647.142,388.866 558.734,476.995 449.841,476.995C340.947,476.995 252.54,388.866 252.54,280.315C252.54,171.764 340.947,83.634 449.841,83.634Z"/>
            </g>
            <g id="syringe" transform="matrix(1,0,0,1,250.799,82.8)">
                <g id="needle-tip" serif:id="needle tip" transform="matrix(-0.941341,-1.09288e-16,1.92554e-16,-1.20081,285.362,908.89)">
                    <path d="M145.51,411.713L146.998,414.045L144.023,414.045L145.51,411.713Z"/>
                </g>
                <g id="needle-body" serif:id="needle body" transform="matrix(1,0,0,2.75303,0,-586.944)">
                    <rect x="146.987" y="334.817" width="2.806" height="27.928"/>
                </g>
                <g id="marks">
                    <g transform="matrix(0.943076,0,0,1.00167,6.42858,29.3667)">
                        <path d="M150.279,283.66C150.279,282.834 149.566,282.163 148.689,282.163L98.852,282.163C97.974,282.163 97.261,282.834 97.261,283.66L97.261,286.655C97.261,287.482 97.974,288.153 98.852,288.153L148.689,288.153C149.566,288.153 150.279,287.482 150.279,286.655L150.279,283.66Z"/>
                    </g>
                    <g transform="matrix(0.943076,0,0,1.00167,6.42858,-30.6333)">
                        <path d="M150.279,283.66C150.279,282.834 149.566,282.163 148.689,282.163L98.852,282.163C97.974,282.163 97.261,282.834 97.261,283.66L97.261,286.655C97.261,287.482 97.974,288.153 98.852,288.153L148.689,288.153C149.566,288.153 150.279,287.482 150.279,286.655L150.279,283.66Z"/>
                    </g>
                    <g transform="matrix(0.943076,0,0,1.00167,6.42858,-90.6333)">
                        <path d="M150.279,283.66C150.279,282.834 149.566,282.163 148.689,282.163L98.852,282.163C97.974,282.163 97.261,282.834 97.261,283.66L97.261,286.655C97.261,287.482 97.974,288.153 98.852,288.153L148.689,288.153C149.566,288.153 150.279,287.482 150.279,286.655L150.279,283.66Z"/>
                    </g>
                    <g transform="matrix(0.47243,0,0,1.00167,52.2042,17.3667)">
                        <path d="M150.279,283.66C150.279,282.834 148.856,282.163 147.104,282.163L100.436,282.163C98.684,282.163 97.261,282.834 97.261,283.66L97.261,286.655C97.261,287.482 98.684,288.153 100.436,288.153L147.104,288.153C148.856,288.153 150.279,287.482 150.279,286.655L150.279,283.66Z"/>
                    </g>
                    <g transform="matrix(0.47243,0,0,1.00167,52.2042,5.36673)">
                        <path d="M150.279,283.66C150.279,282.834 148.856,282.163 147.104,282.163L100.436,282.163C98.684,282.163 97.261,282.834 97.261,283.66L97.261,286.655C97.261,287.482 98.684,288.153 100.436,288.153L147.104,288.153C148.856,288.153 150.279,287.482 150.279,286.655L150.279,283.66Z"/>
                    </g>
                    <g transform="matrix(0.47243,0,0,1.00167,52.2042,-6.63327)">
                        <path d="M150.279,283.66C150.279,282.834 148.856,282.163 147.104,282.163L100.436,282.163C98.684,282.163 97.261,282.834 97.261,283.66L97.261,286.655C97.261,287.482 98.684,288.153 100.436,288.153L147.104,288.153C148.856,288.153 150.279,287.482 150.279,286.655L150.279,283.66Z"/>
                    </g>
                    <g transform="matrix(0.47243,0,0,1.00167,52.2042,-18.6333)">
                        <path d="M150.279,283.66C150.279,282.834 148.856,282.163 147.104,282.163L100.436,282.163C98.684,282.163 97.261,282.834 97.261,283.66L97.261,286.655C97.261,287.482 98.684,288.153 100.436,288.153L147.104,288.153C148.856,288.153 150.279,287.482 150.279,286.655L150.279,283.66Z"/>
                    </g>
                    <g transform="matrix(0.47243,0,0,1.00167,52.2042,-42.6333)">
                        <path d="M150.279,283.66C150.279,282.834 148.856,282.163 147.104,282.163L100.436,282.163C98.684,282.163 97.261,282.834 97.261,283.66L97.261,286.655C97.261,287.482 98.684,288.153 100.436,288.153L147.104,288.153C148.856,288.153 150.279,287.482 150.279,286.655L150.279,283.66Z"/>
                    </g>
                    <g transform="matrix(0.47243,0,0,1.00167,52.2042,-54.6333)">
                        <path d="M150.279,283.66C150.279,282.834 148.856,282.163 147.104,282.163L100.436,282.163C98.684,282.163 97.261,282.834 97.261,283.66L97.261,286.655C97.261,287.482 98.684,288.153 100.436,288.153L147.104,288.153C148.856,288.153 150.279,287.482 150.279,286.655L150.279,283.66Z"/>
                    </g>
                    <g transform="matrix(0.47243,0,0,1.00167,52.2042,-66.6333)">
                        <path d="M150.279,283.66C150.279,282.834 148.856,282.163 147.104,282.163L100.436,282.163C98.684,282.163 97.261,282.834 97.261,283.66L97.261,286.655C97.261,287.482 98.684,288.153 100.436,288.153L147.104,288.153C148.856,288.153 150.279,287.482 150.279,286.655L150.279,283.66Z"/>
                    </g>
                    <g transform="matrix(0.47243,0,0,1.00167,52.2042,-78.6333)">
                        <path d="M150.279,283.66C150.279,282.834 148.856,282.163 147.104,282.163L100.436,282.163C98.684,282.163 97.261,282.834 97.261,283.66L97.261,286.655C97.261,287.482 98.684,288.153 100.436,288.153L147.104,288.153C148.856,288.153 150.279,287.482 150.279,286.655L150.279,283.66Z"/>
                    </g>
                    <g transform="matrix(0.943076,0,0,1.00167,6.42858,-150.633)">
                        <path d="M150.279,283.66C150.279,282.834 149.566,282.163 148.689,282.163L98.852,282.163C97.974,282.163 97.261,282.834 97.261,283.66L97.261,286.655C97.261,287.482 97.974,288.153 98.852,288.153L148.689,288.153C149.566,288.153 150.279,287.482 150.279,286.655L150.279,283.66Z"/>
                    </g>
                    <g transform="matrix(0.47243,0,0,1.00167,52.2042,-102.633)">
                        <path d="M150.279,283.66C150.279,282.834 148.856,282.163 147.104,282.163L100.436,282.163C98.684,282.163 97.261,282.834 97.261,283.66L97.261,286.655C97.261,287.482 98.684,288.153 100.436,288.153L147.104,288.153C148.856,288.153 150.279,287.482 150.279,286.655L150.279,283.66Z"/>
                    </g>
                    <g transform="matrix(0.47243,0,0,1.00167,52.2042,-114.633)">
                        <path d="M150.279,283.66C150.279,282.834 148.856,282.163 147.104,282.163L100.436,282.163C98.684,282.163 97.261,282.834 97.261,283.66L97.261,286.655C97.261,287.482 98.684,288.153 100.436,288.153L147.104,288.153C148.856,288.153 150.279,287.482 150.279,286.655L150.279,283.66Z"/>
                    </g>
                    <g transform="matrix(0.47243,0,0,1.00167,52.2042,-126.633)">
                        <path d="M150.279,283.66C150.279,282.834 148.856,282.163 147.104,282.163L100.436,282.163C98.684,282.163 97.261,282.834 97.261,283.66L97.261,286.655C97.261,287.482 98.684,288.153 100.436,288.153L147.104,288.153C148.856,288.153 150.279,287.482 150.279,286.655L150.279,283.66Z"/>
                    </g>
                    <g transform="matrix(0.47243,0,0,1.00167,52.2042,-138.633)">
                        <path d="M150.279,283.66C150.279,282.834 148.856,282.163 147.104,282.163L100.436,282.163C98.684,282.163 97.261,282.834 97.261,283.66L97.261,286.655C97.261,287.482 98.684,288.153 100.436,288.153L147.104,288.153C148.856,288.153 150.279,287.482 150.279,286.655L150.279,283.66Z"/>
                    </g>
                </g>
                <g id="bottom" transform="matrix(7.22977e-17,-1.17499,0.988101,6.09104e-17,-229.685,448.466)">
                    <path d="M102.753,328.259C98.412,328.259 94.887,352.999 94.887,383.471C94.887,413.943 98.412,438.682 102.753,438.682C101.451,425.8 100.393,405.495 100.393,383.471C100.393,361.447 101.451,341.142 102.753,328.259Z"/>
                </g>
                <g id="left">
                    <g id="syringe-left" serif:id="syringe left" transform="matrix(1.10348,0,0,1.22997,-26.1654,-21.9009)">
                        <rect x="109.506" y="97.122" width="3.625" height="187.614"/>
                    </g>
                    <g transform="matrix(0.42632,0,0,10.0323,74.1635,-184.907)">
                        <rect x="119.211" y="20.471" width="58.551" height="8.617"/>
                    </g>
                    <g transform="matrix(0.407359,0,0,0.949167,28.578,-134.5)">
                        <path d="M298.068,165.408C298.068,163.955 295.319,162.774 291.931,162.774L181.466,162.774C178.079,162.774 175.329,163.955 175.329,165.408L175.329,170.676C175.329,172.13 178.079,173.31 181.466,173.31L291.931,173.31C295.319,173.31 298.068,172.13 298.068,170.676L298.068,165.408Z"/>
                    </g>
                    <g transform="matrix(0.651451,0,0,0.949167,-44.2174,-57.23)">
                        <path d="M298.068,165.408C298.068,163.955 296.349,162.774 294.231,162.774L179.167,162.774C177.049,162.774 175.329,163.955 175.329,165.408L175.329,170.676C175.329,172.13 177.049,173.31 179.167,173.31L294.231,173.31C296.349,173.31 298.068,172.13 298.068,170.676L298.068,165.408Z"/>
                    </g>
                </g>
                <g id="right" transform="matrix(-1,0,0,1,298.428,0)">
                    <g id="syringe-left1" serif:id="syringe left" transform="matrix(1.10348,0,0,1.22997,-26.1654,-21.9009)">
                        <rect x="109.506" y="97.122" width="3.625" height="187.614"/>
                    </g>
                    <g transform="matrix(0.42632,0,0,10.0323,74.1244,-184.907)">
                        <rect x="119.211" y="20.471" width="58.551" height="8.617"/>
                    </g>
                    <g transform="matrix(0.407359,0,0,0.949167,28.578,-134.5)">
                        <path d="M298.068,165.408C298.068,163.955 295.319,162.774 291.931,162.774L181.466,162.774C178.079,162.774 175.329,163.955 175.329,165.408L175.329,170.676C175.329,172.13 178.079,173.31 181.466,173.31L291.931,173.31C295.319,173.31 298.068,172.13 298.068,170.676L298.068,165.408Z"/>
                    </g>
                    <g transform="matrix(0.651451,0,0,0.949167,-44.2174,-57.23)">
                        <path d="M298.068,165.408C298.068,163.955 296.349,162.774 294.231,162.774L179.167,162.774C177.049,162.774 175.329,163.955 175.329,165.408L175.329,170.676C175.329,172.13 177.049,173.31 179.167,173.31L294.231,173.31C296.349,173.31 298.068,172.13 298.068,170.676L298.068,165.408Z"/>
                    </g>
                </g>
            </g>
        </g>
    </g>
</svg>
